<svg width="220" height="72" viewBox="0 0 220 72" fill="none" xmlns="http://www.w3.org/2000/svg">
<g clip-path="url(#clip0_4001_23)">
<path d="M4.23741 52.0254C2.79693 51.2811 2.06469 50.7049 2.06469 49.5765C2.06469 48.7123 2.52084 47.788 3.79326 47.788C5.4138 47.788 5.85795 48.9523 6.14605 50.0327L6.17006 50.1047L6.8903 49.9607V49.8887C6.75825 48.8803 6.68623 48.1961 6.6142 47.5839L6.57819 47.3198H6.51817C6.44615 47.2958 6.35012 47.2718 6.23008 47.2478C5.76192 47.1517 4.98166 46.9717 4.15338 46.9717C2.28076 46.9717 0.384128 48.052 0.384128 50.1287C0.384128 51.7973 1.41647 52.6736 3.32511 53.7059C4.8136 54.5102 5.50984 55.0384 5.50984 56.2988C5.50984 57.4272 4.75358 58.1834 3.62521 58.1834C1.92064 58.1834 1.11637 56.7189 0.744248 55.4945L0.72024 55.4105L0 55.6266V55.6986C0.132044 56.5869 0.36012 57.9193 0.492164 58.4115V58.4475L0.54018 58.4595C1.30844 58.7476 2.23274 59.0357 3.2891 59.0357C5.60587 59.0357 7.28643 57.6192 7.28643 55.6506C7.28643 53.91 6.25408 53.0577 4.22541 52.0134" fill="#205B46"/>
<path d="M11.5956 55.2664L11.7876 55.1823C12.1597 55.0143 12.6519 54.7982 12.988 54.6301V57.199C12.6759 57.4991 12.1477 57.7152 11.7516 57.7152C11.3075 57.7152 10.6112 57.3671 10.6112 56.4547C10.6112 55.8425 11.0074 55.5424 11.5956 55.2664ZM15.7489 57.4271C15.5329 57.5471 15.3408 57.5951 15.1727 57.5951C14.7406 57.5951 14.6566 57.067 14.6566 56.6348V53.3217C14.6566 52.3734 14.3805 51.7492 13.7203 51.197C13.3001 50.8729 12.7479 50.7048 12.1357 50.7048C11.0434 50.9329 9.95101 51.6531 9.53087 51.9412C9.15874 52.2053 8.90666 52.4334 8.90666 52.7335C8.90666 53.2137 9.39883 53.6098 9.80696 53.6098C10.1311 53.6098 10.3351 53.4537 10.4432 53.0936C10.5872 52.5895 10.7073 52.2293 10.8873 52.0013C11.0914 51.7492 11.3195 51.6411 11.6196 51.6411C12.4839 51.6411 12.988 52.3014 12.988 53.4177V53.8019C12.6039 54.09 11.4275 54.4981 10.4672 54.8342L10.2631 54.9062C9.25478 55.2664 8.78662 55.8425 8.78662 56.7308C8.78662 57.8112 9.65091 58.9876 11.0554 58.9876C11.5235 58.9876 12.2438 58.4954 12.892 58.0513C12.952 58.0153 13.012 57.9673 13.072 57.9312C13.1561 58.1593 13.2641 58.3994 13.4802 58.6155C13.6722 58.8195 14.0804 58.9876 14.4165 58.9876H14.4405L16.0731 58.0393L15.845 57.3671L15.7609 57.4151L15.7489 57.4271Z" fill="#205B46"/>
<path d="M24.1283 56.7069V50.7769H24.0323C23.5281 50.8849 22.2797 51.053 21.1873 51.101H21.1033V51.7372L21.7275 51.8212C22.2437 51.9053 22.4237 51.9653 22.4237 52.8656V56.9349C21.9076 57.4151 21.3314 57.6672 20.7312 57.6672C20.191 57.6672 19.2907 57.4271 19.2907 55.8546V53.4418C19.2907 52.3134 19.2907 51.4611 19.3387 50.8729V50.7649L19.2427 50.7769C18.7025 50.8729 17.4541 51.053 16.6138 51.089H16.5298V51.7132L17.07 51.8212C17.4421 51.9053 17.5861 51.9293 17.5861 52.8536V56.2867C17.5861 58.7115 19.1947 58.9756 19.8789 58.9756C20.8272 58.9756 21.5715 58.4595 22.4237 57.7512V58.9996L22.5318 58.9756C23.5761 58.6875 24.5124 58.4715 25.3167 58.3634H25.3887V57.6912L24.8366 57.6672C24.2484 57.6312 24.1403 57.5472 24.1403 56.6949" fill="#205B46"/>
<path d="M32.2786 52.4095V57.1631C31.9064 57.4272 31.3302 57.6912 30.7661 57.6912C29.6617 57.6672 28.4853 56.5629 28.4853 54.5342C28.4853 51.7133 30.2619 51.5692 30.622 51.5692C31.3182 51.5692 31.9545 51.8813 32.2786 52.3975M33.9831 56.6349V46.0474L33.8751 46.0834C33.1789 46.3114 31.9184 46.5515 31.0181 46.6716H30.9461V47.3078H31.0181C32.1705 47.4278 32.2666 47.4278 32.2666 48.4722V50.825C31.8464 50.6929 31.3182 50.6929 31.2462 50.6929C28.6654 50.6929 26.5767 52.6376 26.5767 55.0384C26.5767 57.6072 28.5573 58.9757 29.9858 58.9757C30.1298 58.9757 30.562 58.9277 31.3182 58.4955C31.4743 58.3995 31.6664 58.2794 31.8584 58.1714C32.0025 58.0874 32.1345 58.0154 32.2666 57.9313V59.0117L32.3746 58.9757C33.3229 58.6516 34.4633 58.4595 35.0035 58.3635C35.0875 58.3515 35.1475 58.3395 35.2075 58.3275H35.2796V57.6552L34.6674 57.6072C34.0672 57.5712 33.9711 57.4992 33.9711 56.6109" fill="#205B46"/>
<path d="M38.593 56.7909V50.6328L38.4729 50.6808C37.7047 50.9809 36.8284 51.209 35.8801 51.3651H35.808V51.9653H35.8801C36.8524 52.1333 36.8764 52.1693 36.8764 53.2257V56.7909C36.8764 57.9553 36.7804 57.9913 35.76 58.0993H35.688V58.7835H39.8174V58.1113H39.7453C38.689 58.0033 38.593 57.9553 38.593 56.7909Z" fill="#205B46"/>
<path d="M37.6326 49.2404C38.2088 49.2404 38.689 48.7483 38.689 48.1721C38.689 47.5599 38.2328 47.0797 37.6446 47.0797C37.0564 47.0797 36.5522 47.5599 36.5522 48.1721C36.5522 48.7483 37.0564 49.2404 37.6206 49.2404" fill="#205B46"/>
<path d="M53.0577 55.6265C52.1094 57.5112 51.1971 58.1714 49.6126 58.1714C46.9357 58.1714 45.2071 56.0347 45.2071 52.7456C45.2071 49.7206 46.8276 47.8359 49.4205 47.8359C50.0687 47.8359 50.753 47.956 51.1731 48.148C51.9894 48.4841 52.4455 49.1084 52.8176 50.3688L52.8417 50.4408L53.5739 50.2847V50.2007C53.3818 49.1084 53.2618 47.8239 53.2258 47.4638V47.3918H53.1538C53.0337 47.3798 52.8657 47.3438 52.6736 47.3078C52.0134 47.1757 51.005 46.9836 49.8286 46.9836C45.8433 46.9836 43.0464 49.5045 43.0464 53.1177C43.0464 56.0707 45.0391 59.0357 49.5045 59.0357C50.7289 59.0357 51.9894 58.7716 52.5896 58.6395L52.7696 58.6035V58.5675C53.0457 58.0273 53.5019 56.7669 53.754 55.8786L53.778 55.7946L53.0817 55.5545L53.0457 55.6145L53.0577 55.6265Z" fill="#205B46"/>
<path d="M57.1393 53.5498C57.3553 52.3494 58.0156 51.5451 58.7958 51.5451C59.1439 51.5451 59.468 51.6772 59.7201 51.9292C60.0322 52.2533 60.2123 52.7215 60.2003 53.2257C60.2003 53.4297 60.1523 53.4898 59.8762 53.4898C58.9399 53.5378 58.0276 53.5378 57.1513 53.5378M59.204 50.7048C58.2436 50.7048 57.2593 51.173 56.5151 52.0013C55.7588 52.8055 55.3267 53.9459 55.3267 55.1343C55.3267 57.0549 56.5511 58.9876 58.8798 58.9876C59.1559 58.9876 60.5964 58.9036 61.9049 57.211L61.9409 57.163L61.5687 56.6228L61.4967 56.6828C60.8605 57.259 60.2243 57.5351 59.5281 57.5351C58.8918 57.5351 58.3037 57.283 57.8595 56.8389C57.3193 56.2867 57.0312 55.4824 57.0312 54.4861C58.9399 54.4141 61.2326 54.27 61.6048 54.198C61.9409 54.114 61.9889 53.8499 62.0009 53.5258C62.0009 52.7935 61.6888 52.0613 61.1606 51.5211C60.6324 50.9929 59.9362 50.7048 59.204 50.7048Z" fill="#205B46"/>
<path d="M71.5317 56.8509V53.5258C71.5317 51.7852 70.6194 50.6928 69.1669 50.6928C68.5907 50.6928 68.1105 50.9449 67.6784 51.221C67.2703 51.4851 66.9101 51.7252 66.6341 51.9292C66.6341 51.5331 66.6341 51.065 66.6341 50.7288V50.5968L66.514 50.6448C65.8058 50.9449 64.9175 51.185 63.9452 51.329H63.8731V51.9533H63.9452C64.8215 52.1213 64.9175 52.1333 64.9175 53.2137V56.8269C64.9175 57.9553 64.8335 57.9673 63.7771 58.0873H63.7051V58.7715H67.7024V58.0993H67.6304C66.6821 57.9913 66.6341 57.9793 66.6341 56.8509V52.7695C67.2463 52.2413 67.8345 51.9773 68.3746 51.9773C69.335 51.9773 69.8151 52.6135 69.8151 53.8619V56.7669C69.8151 57.9432 69.7191 57.9913 68.8308 58.0873H68.7588V58.7715H72.6241V58.0993H72.552C71.6157 57.9913 71.5437 57.9793 71.5437 56.8389" fill="#205B46"/>
<path d="M78.0623 57.4993C77.7141 57.6673 77.378 57.7514 77.0659 57.7514C76.4657 57.7514 76.1536 57.2232 76.1536 56.1788V51.8214H77.9542C78.0863 51.7133 78.1703 51.5453 78.1823 51.3532C78.1943 51.1852 78.1583 51.0291 78.0743 50.9331L78.0503 50.9091H76.1416C76.1416 50.0448 76.1536 49.0845 76.1896 48.3882V48.3162L75.8175 48.2322L75.7815 48.2562C75.6014 48.4362 75.3614 48.6403 75.1333 48.8444C74.8932 49.0605 74.6411 49.2765 74.4491 49.4566L74.4251 49.4806V50.8971H73.6808L73.1406 51.4973L73.2607 51.8094H74.4251V56.779C74.4251 58.2315 75.0613 58.9758 76.3097 58.9758C76.4777 58.9758 76.7658 58.9157 77.0899 58.7477L78.3384 58.0995L78.1223 57.4513L78.0383 57.4873L78.0623 57.4993Z" fill="#205B46"/>
<path d="M85.1321 50.7049C84.3159 50.7049 83.6316 51.4851 83.0074 52.3854V50.6208L82.8874 50.6689C82.0831 51.005 81.2668 51.2331 80.3185 51.3771H80.2465V51.9893H80.3185C81.2428 52.1214 81.2909 52.1334 81.2909 53.2137V56.8869C81.2909 57.9793 81.2188 58.0153 80.1985 58.1113H80.1265V58.7956H84.4239V58.1234H84.3399C83.0434 58.0033 82.9954 57.9553 82.9954 56.8749V53.5978C83.3795 52.7336 83.9677 52.3254 84.2438 52.3254C84.5199 52.3254 84.7 52.4935 84.9881 52.7576C85.1681 52.9136 85.3482 52.9256 85.5523 52.8176C85.8884 52.6375 86.2485 52.2054 86.2485 51.6892C86.2485 51.209 85.8644 50.7289 85.1321 50.7289" fill="#205B46"/>
<path d="M90.1502 55.2664L90.3423 55.1823C90.7144 55.0143 91.2066 54.7982 91.5427 54.6301V57.199C91.2306 57.4991 90.7024 57.7152 90.3063 57.7152C89.8622 57.7152 89.1659 57.3671 89.1659 56.4547C89.1659 55.8425 89.562 55.5424 90.1502 55.2664ZM94.3036 57.4271C94.0876 57.5471 93.8955 57.5951 93.7274 57.5951C93.2953 57.5951 93.2113 57.067 93.2113 56.6348V53.3217C93.2113 52.3734 92.9352 51.7492 92.275 51.197C91.8548 50.8729 91.3026 50.7048 90.6904 50.7048C89.5981 50.9329 88.5057 51.6531 88.0856 51.9412C87.7134 52.2053 87.4613 52.4334 87.4613 52.7335C87.4613 53.2137 87.9535 53.6098 88.3616 53.6098C88.6978 53.6098 88.8898 53.4537 88.9979 53.1176V53.0936C89.1539 52.6015 89.2619 52.2413 89.442 52.0013C89.6461 51.7492 89.8742 51.6411 90.1743 51.6411C91.0385 51.6411 91.5427 52.3014 91.5427 53.4177V53.8019C91.1586 54.09 89.9822 54.4981 89.0219 54.8342L88.8178 54.9062C87.8095 55.2664 87.3413 55.8425 87.3413 56.7308C87.3413 57.8112 88.2056 58.9876 89.6101 58.9876C90.0782 58.9876 90.7985 58.4954 91.4467 58.0513C91.5067 58.0153 91.5667 57.9673 91.6267 57.9312C91.6988 58.1593 91.8188 58.3994 92.0349 58.6155C92.2269 58.8195 92.6351 58.9876 92.9712 58.9876H92.9952L94.6277 58.0393L94.3997 57.3671L94.3156 57.4151L94.3036 57.4271Z" fill="#205B46"/>
<path d="M97.8325 56.839V46.0474L97.7125 46.0834C97.1243 46.2994 96.0079 46.5635 95.0236 46.6716H94.9515V47.3078H95.0236C96.0559 47.4638 96.1279 47.5239 96.1279 48.5322V56.839C96.1279 57.9553 96.0319 57.9913 94.9875 58.0994H94.9155V58.7836H99.0569V58.1114H98.9849C97.9045 58.0033 97.8565 57.9433 97.8565 56.839" fill="#205B46"/>
<path d="M106.439 52.2175H105.671V48.9644C105.671 48.4722 105.707 48.3042 105.827 48.2201C105.971 48.1121 106.271 48.0641 106.727 48.0641C108.144 48.0641 108.996 48.8443 108.996 50.1408C108.996 51.5572 108.192 52.2295 106.451 52.2295M107.124 57.9554C106.511 57.9554 106.175 57.8713 105.971 57.6673C105.755 57.4512 105.671 57.0911 105.671 56.4549V53.0217H106.391C108.552 53.0217 109.596 53.826 109.596 55.4825C109.596 57.3072 108.264 57.9554 107.124 57.9554ZM108.852 52.5056C109.908 52.1454 110.929 51.3172 110.929 49.9007C110.929 49.0484 110.557 48.3522 109.848 47.872C109.212 47.4399 108.336 47.2478 107.076 47.2478H102.274V47.932H102.358C103.726 48.0521 103.834 48.1721 103.834 49.5526V56.5029C103.834 57.8713 103.75 57.9674 102.346 58.0994H102.274V58.7836H106.775C108.072 58.7836 109.008 58.5676 109.896 58.0754C111.001 57.4752 111.637 56.4669 111.637 55.3145C111.637 53.862 110.677 52.9017 108.852 52.4936" fill="#205B46"/>
<path d="M116.223 55.2664L116.415 55.1823C116.787 55.0143 117.279 54.7862 117.615 54.6301V57.199C117.303 57.4991 116.775 57.7152 116.379 57.7152C115.934 57.7152 115.238 57.3671 115.238 56.4547C115.238 55.8425 115.634 55.5424 116.223 55.2664ZM120.364 57.4271C120.148 57.5471 119.956 57.5951 119.788 57.5951C119.356 57.5951 119.272 57.067 119.272 56.6348V53.3217C119.272 52.3734 118.995 51.7492 118.335 51.197C117.915 50.8729 117.363 50.7048 116.751 50.7048C115.658 50.9329 114.566 51.6531 114.146 51.9412C113.774 52.2053 113.522 52.4334 113.522 52.7335C113.522 53.2137 114.014 53.6098 114.422 53.6098C114.746 53.6098 114.95 53.4537 115.058 53.0936C115.214 52.5895 115.322 52.2293 115.502 52.0013C115.706 51.7492 115.934 51.6411 116.235 51.6411C117.099 51.6411 117.603 52.3014 117.603 53.4177V53.8019C117.219 54.09 116.042 54.4981 115.094 54.8342L114.89 54.9062C113.882 55.2664 113.414 55.8425 113.414 56.7308C113.414 57.8112 114.278 58.9876 115.682 58.9876C116.15 58.9876 116.871 58.4954 117.519 58.0513C117.579 58.0153 117.639 57.9673 117.699 57.9312C117.771 58.1593 117.891 58.3994 118.107 58.6155C118.299 58.8195 118.707 58.9876 119.043 58.9876H119.067L120.7 58.0393L120.472 57.3671L120.388 57.4151L120.364 57.4271Z" fill="#205B46"/>
<path d="M128.791 56.8509V53.5258C128.791 51.7852 127.879 50.6928 126.426 50.6928C125.85 50.6928 125.37 50.9449 124.938 51.221C124.53 51.4851 124.169 51.7252 123.893 51.9292C123.893 51.5331 123.893 51.065 123.893 50.7288V50.5968L123.773 50.6448C123.065 50.9449 122.177 51.185 121.204 51.329H121.132V51.9533H121.204C122.081 52.1213 122.177 52.1333 122.177 53.2137V56.8269C122.177 57.9553 122.093 57.9673 121.036 58.0873H120.964V58.7715H124.962V58.0993H124.89C123.941 57.9913 123.893 57.9793 123.893 56.8509V52.7695C124.506 52.2413 125.094 51.9773 125.634 51.9773C126.594 51.9773 127.074 52.6135 127.074 53.8619V56.7669C127.074 57.9432 126.978 57.9913 126.09 58.0873H126.018V58.7715H129.871V58.0993H129.799C128.863 57.9913 128.791 57.9793 128.791 56.8389" fill="#205B46"/>
<path d="M139.451 58.0993C138.79 58.0513 138.562 58.0033 137.782 57.199C137.266 56.6468 135.573 54.6662 135.141 54.066C135.537 53.5858 136.221 52.8055 136.522 52.4934C137.242 51.7372 137.626 51.5931 138.79 51.4131H138.862V50.7529L135.069 50.9089V51.5691H135.141C135.417 51.6051 135.789 51.6532 135.849 51.7852C135.885 51.8572 135.837 51.9773 135.705 52.1573C135.429 52.5775 134.781 53.3577 134.385 53.7539C134.109 54.0419 133.821 54.222 133.437 54.33V46.0353L133.316 46.0833C132.572 46.3594 131.504 46.5875 130.628 46.6715H130.556V47.2957H130.628C131.648 47.4638 131.732 47.4758 131.732 48.5321V56.8269C131.732 57.9072 131.672 57.9793 130.592 58.0873H130.52V58.7715H134.637V58.0993H134.565C133.497 57.9793 133.449 57.9312 133.449 56.8389V54.9783C133.533 54.9663 133.617 54.9783 133.653 54.9783C133.761 54.9783 133.845 55.0503 134.073 55.3024C134.145 55.3864 135.597 57.175 136.389 58.1473C136.678 58.5074 136.882 58.7595 136.906 58.7835L136.93 58.8195H136.978C137.374 58.7955 138.418 58.7835 139.475 58.7835H139.559V58.1113H139.475L139.451 58.0993Z" fill="#205B46"/>
<path d="M57.1512 14.2367C57.2352 13.8765 57.9074 13.6965 57.7874 14.5608C57.6313 14.6448 57.2472 14.3927 57.1512 14.2367ZM57.5713 15.389C57.4513 15.5331 57.3192 15.6411 57.1872 15.7852C57.0311 15.9532 56.9711 16.0253 56.803 16.1813C56.5029 16.4334 56.2268 16.6735 55.9027 16.9135C55.6266 17.1176 54.1622 18.186 54.0901 18.378C54.5703 18.282 55.9748 17.4297 56.3109 17.1656C56.683 16.8775 57.4873 16.1093 57.7273 15.7131C57.7994 15.5931 57.7874 15.5811 57.8834 15.4731C58.0995 15.5811 58.1715 15.5931 58.3395 15.7612C58.3395 15.7612 58.3516 15.7252 58.3636 15.7372C58.3756 15.7612 58.6156 15.317 58.6156 15.149C58.6156 14.9449 58.3516 14.8489 58.1235 14.7528C58.1355 14.3567 58.2915 13.8765 58.0875 13.4564C57.7393 12.7722 56.623 13.8525 56.755 14.6448C56.791 14.8849 56.9591 14.9929 57.0911 15.0889C57.1512 15.137 57.2352 15.197 57.3192 15.233C57.3552 15.257 57.4032 15.269 57.4513 15.293L57.5713 15.389ZM56.9111 17.7898C56.827 17.8499 56.8751 17.7898 56.815 17.8979C56.731 18.0779 56.719 18.7142 56.3829 18.9782C56.2388 19.0983 55.9027 19.1823 55.7827 19.0022C55.6507 18.7982 55.8067 18.4501 55.7587 18.198C55.2665 18.4381 54.9904 20.3467 56.2268 19.7225C56.3829 19.6505 56.3949 19.6024 56.5269 19.5064C56.707 19.3744 56.731 19.4584 56.9471 19.4584C58.0875 19.4584 58.5436 17.7538 58.0875 17.2497C57.9794 17.3337 57.7393 17.7058 57.7874 17.8859C57.8594 18.138 58.1835 18.4861 57.4272 18.7021C57.3792 18.7141 57.2712 18.7382 57.2112 18.7382C57.0431 18.7382 57.0671 18.7622 57.0311 18.6421C56.9231 18.366 57.1391 17.9819 56.9111 17.7898ZM78.0141 19.0623C78.2782 18.8102 78.7464 17.7538 78.4222 17.3217C78.0621 16.8535 77.0298 17.1296 76.5136 17.3217C75.4693 17.7298 74.2449 18.5221 73.4766 19.0863C72.7564 19.6144 71.4479 20.6108 70.8597 21.307C70.0915 22.2073 67.9067 25.1243 70.3435 25.7965C72.1201 26.2887 75.2532 25.9406 77.0298 25.7485C79.9468 25.4484 82.8757 25.1363 85.8287 24.8962C87.5333 24.7642 89.61 24.6801 90.7624 25.8805C90.8224 25.9406 91.2905 26.4567 91.2305 26.5648C91.1705 26.6728 89.3939 26.8048 89.1298 26.8409C84.7964 27.345 80.571 27.9812 76.2495 28.4494C74.2328 28.6655 69.1191 28.9776 67.3425 28.2213C66.5383 27.8852 65.842 27.261 65.4099 26.5288C65.3019 26.3487 65.0858 25.8685 64.9898 25.7965C64.8337 25.8445 64.7857 25.9886 64.7257 26.1926C64.4856 27.0329 64.4736 27.237 64.7377 27.7772C65.0138 28.3414 65.3139 29.0016 65.4819 29.6498C65.71 30.5621 65.626 30.6821 64.8457 31.3904L63.3692 32.5188C62.2769 33.275 59.1318 35.2197 57.8234 33.8392C57.3792 33.371 56.9951 32.8068 57.0191 32.0746C57.3432 31.9786 57.7994 31.7145 58.0995 31.5584C58.8677 31.1743 60.3322 30.25 60.9564 29.6498C61.4486 29.1816 62.0128 28.5694 62.0128 27.5371C62.0128 26.3847 61.4366 26.2046 60.4643 25.9166C59.648 25.6765 58.7357 25.5804 58.0034 25.2083C57.6433 25.0283 57.2472 24.8242 57.4873 24.296C57.8714 23.4437 58.8677 22.2313 59.576 21.6551C61.1005 20.4067 61.2325 21.7272 61.4606 21.9312C61.7127 21.8592 61.8807 21.415 61.9287 21.0789C62.0248 20.3107 61.7247 19.4464 60.8964 19.5424C60.4162 19.6024 59.9841 19.9626 59.636 20.2267C59.4799 20.3467 59.4199 20.4307 59.2879 20.5388C58.5796 21.175 58.0755 21.8952 57.6073 22.7235C57.3072 23.2397 57.0311 23.9599 56.8991 24.6321C56.707 25.6525 56.779 26.1326 57.3912 26.6248C58.2675 27.321 60.6563 27.333 61.2805 27.9212C61.4006 28.1733 60.6203 28.6295 60.4402 28.7375C60.1041 28.9656 59.792 29.1456 59.4319 29.3617C58.9878 29.6258 57.7153 30.358 57.2232 30.4661C57.2952 30.0459 57.5833 29.2897 57.5473 28.9536C57.2232 29.1216 56.9831 30.4301 56.8751 30.5981C56.803 30.7182 56.2148 30.8862 56.0468 30.9462C54.3542 31.5464 51.8934 31.9065 50.741 30.358C48.9404 27.9452 51.1131 24.9202 51.1612 24.116C51.0051 24.116 50.9331 24.248 50.8491 24.368C50.765 24.5001 50.705 24.5841 50.621 24.7282C49.0364 27.393 48.5563 32.7828 52.7937 33.0589C54.4262 33.167 55.3506 32.6268 56.599 32.2667C56.5149 33.8512 57.0071 35.2317 58.1235 35.7118C59.5399 36.324 61.6286 35.2437 62.733 34.4874C63.8974 33.7071 65.2418 32.6868 65.8661 31.4144C66.2742 30.5861 66.1181 30.226 66.2022 29.3017C66.4302 29.3977 66.6823 29.5538 66.9584 29.6738C67.2225 29.7938 67.5106 29.8899 67.7987 29.9619C69.4673 30.394 72.3962 30.358 74.0648 30.202C76.7657 29.9499 79.4066 29.6018 82.0835 29.2417C85.0364 28.8335 88.0735 28.4014 91.0024 28.0533C91.4946 27.9932 91.4826 27.9572 91.6987 27.6211C92.8391 25.7965 91.5426 24.296 89.826 23.6838C88.4696 23.1916 87.2932 23.2637 85.8047 23.3717C84.4603 23.4677 83.0558 23.6238 81.7234 23.7798C78.9984 24.1039 73.9447 24.7762 71.3519 24.344C71.0158 24.284 69.7433 24.0679 69.9714 23.5518C70.1395 23.1796 71.724 21.7512 72.2522 21.343C73.0805 20.6948 73.8727 20.0826 74.9051 19.5064C77.8581 17.8619 77.4979 18.9422 77.9901 19.0743M24.8484 27.381C24.4763 27.4531 24.0561 27.5131 23.648 27.4411C23.3359 27.393 22.9037 27.117 23.2038 26.7928C23.552 26.4207 24.3922 26.6248 24.8484 27.369M0.180163 23.8159L0.120143 24.332C0.000103281 25.2683 0.348219 25.7725 0.780363 25.6405C0.672327 25.8685 0.576295 26.0966 0.492267 26.3367C0.204171 27.189 0.0481193 28.0173 0.0121073 28.9776C-0.0479127 30.7782 0.444251 32.3987 2.20884 33.0709C4.4896 33.9472 8.42691 32.1226 10.3596 30.7182C10.5156 30.6101 10.6477 30.5261 10.8157 30.394C10.8997 30.334 10.9598 30.274 11.0318 30.214L11.2719 30.0339C11.1878 30.4661 11.0318 30.8862 10.9478 31.3664C10.7317 32.5548 10.5876 34.5954 11.9201 34.9916C12.8444 35.2677 13.7447 34.6435 14.3929 34.3073C14.837 34.0793 16.1095 33.191 16.3856 33.0709C16.4816 33.227 16.5656 33.7071 16.6977 33.9472C17.9221 36.252 20.671 35.2076 22.2795 34.0313C23.3119 33.287 24.5963 32.1466 25.3646 31.1743C25.9167 30.4781 26.2649 29.5418 26.3129 28.6054C26.589 28.4614 27.2492 28.2213 27.5733 28.0773L30.8864 26.6368C30.5383 27.6091 30.0941 29.2537 30.4062 30.238C30.5143 30.5621 30.7303 30.8742 30.9944 31.0543C31.9307 31.6785 33.3232 31.2103 34.1395 30.5501C34.7277 30.0699 35.2559 29.1576 35.58 29.2177C35.748 29.6138 35.5199 30.166 36.1682 30.7302C36.5523 31.0663 37.3205 31.1383 37.8967 30.9942C38.4369 30.8502 38.9171 30.5141 39.2292 30.214C40.0815 29.3977 39.8294 29.5178 40.1655 29.1456C40.2495 29.0616 40.1655 29.1216 40.2735 29.0616C40.3936 30.0939 40.8977 30.9822 42.0981 30.7662C42.6143 30.6701 42.9624 30.358 43.1905 30.0579C43.3225 29.8899 43.4306 29.7218 43.5386 29.5057C43.6346 29.3137 43.7067 29.0736 43.8387 28.9296C44.0908 29.2417 44.1628 30.0219 44.9431 30.394C45.7473 30.7782 46.3475 30.4421 46.8277 30.0219C47.656 29.2897 48.1241 27.6211 48.1361 26.1806C48.1602 24.236 47.788 19.8905 47.608 17.5618C47.584 17.2377 47.5119 16.6735 47.548 16.3374C47.752 16.4334 47.8841 16.8415 48.2682 16.8895C48.3162 16.4334 47.8721 15.4491 47.704 15.0049C47.572 14.6568 47.1518 13.4084 46.9598 13.2403C46.7797 13.3364 46.6116 13.9486 46.5396 14.1526C46.3115 14.8008 46.4676 14.6568 46.5756 15.233C46.6356 15.5451 46.6957 17.3217 46.7317 17.8138C46.8277 19.5184 46.9718 21.343 47.0918 23.0476C47.1638 24.0319 47.4999 27.4411 47.2238 28.1853C47.1398 28.4254 46.7197 28.6535 46.4436 28.7735C45.7714 29.0616 44.8951 29.0136 44.547 28.2813C44.3189 27.8012 44.5469 27.393 44.4269 27.117C44.1508 27.0929 44.1148 27.369 43.9828 27.5851C43.6466 28.1373 43.2505 28.7735 42.5543 29.0496C41.9301 29.2897 41.4619 29.2056 41.1498 28.7975C40.5256 27.9932 41.1498 27.6811 40.9698 27.333C40.5976 27.381 39.8054 28.9176 38.4489 29.3257C37.8367 29.5057 37.0685 29.4937 36.5643 29.1696C35.7 28.6054 36.3362 27.6931 36.1441 27.5251C35.808 27.225 34.7997 29.0256 33.4433 29.5057C32.8551 29.7098 32.0028 29.8539 31.3906 29.6258C30.1421 29.1696 31.1505 27.273 31.2945 26.4687L33.7193 25.4124C34.1275 25.2323 34.6196 25.0883 34.8357 24.7642C34.9798 24.5361 35.4239 23.8158 35.3999 23.5638C34.9918 23.5638 32.3869 24.8242 31.4626 25.0283C30.1662 25.3043 29.3619 24.8842 28.4256 24.2C27.8254 23.7558 26.9131 22.5554 26.8411 21.7512C26.817 21.4151 27.2492 21.235 27.5493 21.1029C28.8217 20.5388 30.7904 20.3347 32.1948 20.5388C32.5429 20.5868 33.0351 20.7548 33.3232 20.7668C33.2632 20.5748 33.2032 20.5508 33.0351 20.4427C32.699 20.2026 32.3749 19.9866 31.9908 19.8065C30.8504 19.2903 29.3979 19.0983 28.2215 19.5544C25.8087 20.4907 25.4726 23.2877 27.2972 25.2923C27.4893 25.5084 28.2095 26.1206 28.5696 26.2407C28.5336 26.2767 28.5456 26.2647 28.4976 26.3007C28.3536 26.3967 28.1615 26.4447 28.0054 26.5168C27.8014 26.6008 27.6093 26.6728 27.4172 26.7448C27.0211 26.9009 26.625 27.117 26.2048 27.177C26.1208 26.8649 25.7847 26.3847 25.6046 26.1326C23.636 23.2757 21.3552 27.6691 22.8557 28.6054C23.612 29.0736 24.7644 28.9416 25.6286 28.7615C25.7847 29.6018 25.6286 29.5538 25.2205 30.0579C24.9924 30.334 24.5963 30.7422 24.3082 30.9822L23.3119 31.8225C22.2315 32.6148 21.0311 33.4671 19.6386 33.6831C18.4382 33.8752 17.4059 33.4431 17.0338 32.6508C17.0698 32.6028 17.0338 32.6268 17.1178 32.5668C17.1658 32.5187 17.1298 32.5548 17.1898 32.5188L18.9184 31.2823C19.6026 30.7542 20.0348 30.382 20.2148 29.3737C20.3229 28.7615 20.3109 28.0653 20.0828 27.5011C19.8667 26.9729 19.4706 26.7208 18.9784 26.4567C18.5103 26.2167 18.0181 25.9886 17.5379 25.7485C16.9377 25.4484 15.2812 24.5841 14.9811 24.0559C15.2932 24.0559 15.7013 24.116 15.8934 23.9359C15.8334 23.6478 15.0291 23.3357 14.741 23.2036C14.5249 23.0956 14.3209 22.9996 14.1048 22.9035C13.9848 22.8555 13.9007 22.8075 13.7927 22.7475C13.3846 22.5434 13.4806 22.9156 13.4806 23.2397C13.4806 24.4161 13.3966 24.0559 13.9367 24.5001C14.1768 24.6921 14.2849 24.8962 14.4529 25.1123C14.801 25.5324 15.1852 25.9045 15.6293 26.2407C15.7373 26.3247 15.8454 26.3967 15.9654 26.4807C16.0615 26.5528 16.1815 26.6368 16.2895 26.6968C16.7817 26.9609 17.2619 27.201 17.79 27.4651C18.1742 27.6571 20.4189 28.5814 19.7707 29.2417C19.5306 29.4817 17.1658 31.1623 16.7697 31.3304C16.7697 30.274 17.3099 29.1456 17.3219 28.4254C17.1778 28.4734 17.1658 28.5814 17.0938 28.7495C17.0458 28.8695 16.9978 28.9776 16.9498 29.1096C16.8537 29.3617 16.7817 29.6138 16.6977 29.8779C16.5296 30.4541 16.4576 30.9822 16.3856 31.6064C16.2295 31.6665 15.9774 31.8585 15.8094 31.9666C15.2212 32.3147 14.633 32.6988 14.0088 32.9749C13.1685 33.347 11.8961 33.8992 11.3799 32.7828C11.1638 32.3147 11.2599 31.6545 11.3439 31.1623C11.3919 30.8862 11.608 29.8179 11.704 29.6498C11.752 29.5538 11.8481 29.5057 11.9321 29.4097C12.0041 29.3377 12.0761 29.2417 12.1361 29.1456C12.5083 28.5334 12.7363 27.6331 12.4242 26.9489C11.9921 26.0126 9.54328 25.9646 8.4029 25.3404C7.81471 25.0163 7.89874 24.7282 8.21084 24.164C8.65499 23.3717 9.21918 22.6635 9.8794 22.0873C9.97543 22.0032 10.0114 21.9432 10.1315 21.8712C10.2395 21.7992 10.2995 21.7512 10.4076 21.6791C10.5756 21.5591 10.8037 21.4271 11.0438 21.379C11.788 21.223 11.776 22.0032 12.0041 22.1593C12.2562 22.0753 12.4362 21.6431 12.4723 21.307C12.5203 20.8869 12.4723 20.4787 12.2802 20.1906C11.1278 18.5101 7.85072 22.3874 7.40657 24.9442C7.23852 25.9166 7.32254 26.4087 7.94675 26.8649C8.77503 27.4771 11.812 27.7172 11.836 28.2213C11.68 28.7015 9.01511 30.142 8.27086 30.4901C6.97443 31.0903 5.36589 31.7265 3.69734 31.6785C1.99277 31.6305 0.864391 30.5621 0.624311 28.9896C0.324211 26.9489 1.59664 25.1483 1.70467 24.368C1.7767 24.164 1.83672 23.9239 1.88473 23.6478C1.69267 23.7798 1.72868 23.8038 1.54862 24.0679C1.42858 24.248 1.35656 24.404 1.16449 24.4641C0.588299 24.6201 0.648319 23.7198 0.708339 23.2517C0.840383 22.1233 1.4766 21.0549 1.74068 20.0706L1.4886 20.3947C0.972427 21.283 0.348219 22.7475 0.228179 23.7918M107.028 29.8539C105.947 29.8539 105.143 29.8299 104.171 29.2657C103.763 29.0256 103.018 28.3774 103.018 27.6691C103.018 26.0726 103.715 25.4364 103.655 24.8242C103.403 24.9202 103.066 25.7485 102.934 26.0846C102.634 26.8889 102.61 27.405 102.61 28.2213C102.61 30.166 104.183 31.4864 106.151 31.4864H106.704C108.792 31.4864 110.989 30.202 112.586 29.2177C112.922 29.0016 113.21 28.7255 113.51 28.4974C114.554 27.7051 114.566 26.7328 114.758 26.4567C114.878 27.7892 114.89 30.4781 116.907 30.4781C117.411 30.4781 117.759 30.4661 118.216 30.118C118.516 29.8779 118.66 29.7338 118.876 29.4097C119.08 29.1096 119.74 27.9092 119.92 27.7652C120.244 28.0653 120.124 29.0736 121.853 29.9619C124.001 31.0663 127.11 30.7302 129.343 30.0339C129.991 29.8299 130.988 29.4697 131.6 29.1696C131.804 29.0736 132.128 28.8455 132.32 28.8575C132.428 29.4457 132.44 29.6498 132.8 30.0099C133.148 30.358 133.641 30.4421 134.205 30.4421C135.057 30.4421 135.753 29.5177 136.029 28.9055C136.87 26.9729 136.642 25.1603 136.498 23.0956L136.186 18.7622C136.137 18.1139 135.981 16.9496 136.041 16.3494C136.173 16.4214 136.774 17.2497 136.774 16.7335C136.774 16.4454 135.657 13.4444 135.453 13.2523C135.297 13.3484 134.949 14.3327 134.913 14.5488C134.877 14.7528 135.033 15.0529 135.081 15.305C135.129 15.5811 135.141 15.8692 135.141 16.1813C135.165 17.8619 135.453 21.331 135.597 23.1436C135.645 23.7198 135.681 24.284 135.717 24.8602C135.789 25.9045 135.825 26.3247 135.825 27.357C135.825 27.9452 135.753 28.1853 135.369 28.4374C134.721 28.8695 133.569 29.0856 133.112 28.4374C132.848 28.0653 133.112 27.5851 133.016 27.213C132.836 27.213 131.78 27.7172 131.516 27.8252C129.799 28.5094 128.095 28.9416 126.198 29.0256C124.95 29.0856 123.341 29.0616 122.333 28.5574C121.589 28.1853 120.844 27.7892 120.604 27.0329C120.508 26.7448 120.544 26.3127 120.436 26.1086C120.172 26.0606 120.124 26.2527 120.016 26.3967C119.056 27.6931 118.636 28.8575 117.015 28.8575C115.599 28.8575 115.599 26.9969 115.515 25.7485C115.419 24.296 115.419 22.7955 115.347 21.307C115.275 19.8545 115.215 18.4501 115.01 17.0456C114.866 16.0493 114.53 14.0086 114.17 13.2403C113.978 13.3123 113.978 13.4804 113.918 13.7925C113.69 14.9089 113.738 14.7648 113.918 15.8692C114.434 19.1463 114.53 21.331 114.578 24.7282C114.602 25.9286 114.398 26.2046 113.666 26.9729C113.33 27.333 112.177 28.0533 111.793 28.2693C110.617 28.9296 108.612 29.8539 107.004 29.8539M99.6333 26.7808C99.9574 26.7208 100.306 26.6728 100.618 26.7688C100.882 26.8409 101.134 26.9849 101.11 27.285C100.834 27.5131 100.029 27.405 99.6333 26.7808ZM98.1568 25.7365C97.7967 26.0966 95.6 27.141 94.7717 26.5288C94.4476 26.2887 94.4356 25.8565 94.1475 25.6044C93.9554 25.7485 93.8354 26.3727 93.7514 26.6728C93.6313 27.141 93.9074 27.4531 94.0515 27.8252C94.2195 28.2453 94.7717 29.8299 94.5676 30.274C94.5316 30.358 94.3035 30.6341 94.2435 30.6941L92.9951 31.7505C91.8307 32.6388 90.5463 33.5271 89.0938 33.9472C88.0615 34.2473 87.3772 34.1753 86.753 33.5631C86.2368 33.0589 85.9248 32.2547 86.0448 31.2823C86.1528 30.4301 86.561 29.0616 86.561 28.7495C86.4049 28.7975 86.3809 28.9416 86.2729 29.2056C85.7447 30.5381 85.3726 32.4467 85.8047 33.8152C87.0291 37.6925 91.6627 34.5834 93.5353 32.9149C94.9518 31.6545 95.0598 30.346 95.0838 28.2933C95.744 28.4254 96.4403 28.1973 96.9924 27.9692C97.6287 27.7171 98.1928 27.333 98.529 27.201C98.9731 28.5334 101.242 30.0939 101.878 27.9692C102.142 27.0809 101.902 26.0366 101.422 25.5204C100.978 25.0403 100.306 25.0763 99.6093 25.2323C99.3932 25.2803 99.1892 25.3764 99.0091 25.4124C98.4569 24.5721 98.0608 17.5498 98.0608 16.0493C98.2169 16.1093 98.1448 16.0613 98.2529 16.1933C98.3009 16.2533 98.3369 16.3013 98.3969 16.3614C98.4929 16.4694 98.601 16.5894 98.781 16.6014C98.9131 16.2533 97.9047 13.8165 97.6287 13.1563C97.5686 13.0243 97.5926 13.0363 97.4966 12.9642C97.3165 13.0723 96.9804 14.1166 96.9564 14.2727C96.9324 14.4647 97.0765 14.7648 97.1125 14.9929C97.1605 15.257 97.1725 15.5691 97.1725 15.8572C97.2085 18.27 97.4606 21.8112 97.8687 24.2C97.9408 24.6441 98.0488 25.3644 98.1808 25.7485M138.826 28.5094C138.826 29.2657 138.694 30.202 138.742 30.7302C138.994 30.5981 139.295 29.5418 139.391 29.1456C139.799 27.4291 139.595 25.9406 139.475 24.2L139.102 19.0142C139.066 18.5461 138.91 16.6975 138.934 16.3854C139.138 16.4574 139.679 17.2617 139.679 16.8295C139.679 16.4574 139.235 15.389 139.09 15.0169C138.97 14.6808 138.538 13.4324 138.37 13.2883C138.19 13.4084 137.77 14.4887 137.83 14.7888C137.89 15.0889 137.998 15.257 138.034 15.6411C138.058 15.9772 138.058 16.3254 138.082 16.6615C138.166 17.9939 138.25 19.2903 138.334 20.6228C138.418 21.9192 138.526 23.2277 138.61 24.5241C138.682 25.5444 138.85 27.5971 138.85 28.5094M51.2692 14.5488C51.2692 14.6328 51.4252 15.0649 51.4493 15.245L51.6053 17.8619C51.6773 19.0263 51.7614 20.1786 51.8454 21.331C51.9294 22.4834 52.0134 23.6478 52.0855 24.8122C52.1575 25.9526 52.3255 27.5611 52.2895 28.6775C52.2775 29.2537 52.1695 30.0219 52.1935 30.5621C52.3496 30.5021 52.3495 30.4301 52.4456 30.214C53.3579 28.0653 53.0698 26.2407 52.9257 23.9959L52.5536 18.8342C52.5176 18.33 52.3376 16.5894 52.3976 16.2293C52.6136 16.3013 52.7697 16.7815 53.1298 16.7695C53.1418 16.2533 52.4576 14.6208 52.2055 13.9726C52.1095 13.7205 51.9654 13.2403 51.7974 13.1323C51.6533 13.2523 51.2572 14.2727 51.2572 14.5368M105.011 26.0126C105.011 26.8169 104.891 27.9452 104.927 28.3894C105.419 28.1613 105.815 25.7005 105.815 24.9562L105.251 16.1213C105.539 16.2293 105.671 16.6615 105.983 16.6615C106.103 16.3494 105.287 14.4047 105.095 13.8885C105.011 13.6605 104.843 13.1323 104.699 13.0122C104.507 13.1323 104.231 13.9606 104.171 14.2727C104.111 14.5368 104.255 14.7288 104.315 14.9929C104.363 15.257 104.375 15.5331 104.387 15.8092C104.423 17.6818 104.687 20.6108 104.819 22.5674C104.891 23.6598 105.023 24.9202 105.023 26.0006M78.9384 21.4631C79.1425 21.391 79.4906 21.151 79.7067 21.0309C79.9468 20.8869 80.2108 20.7428 80.4509 20.6108C82.1555 19.6265 86.573 17.3217 88.1695 16.6134C88.9498 16.2653 89.754 15.8452 90.5703 15.4971C90.7984 15.401 90.7744 15.4251 90.8224 15.161C90.8464 14.9809 90.8944 14.8128 90.9064 14.6208C90.4383 14.7168 85.3245 17.2617 84.5443 17.6698C83.4279 18.258 80.1868 19.9626 79.2625 20.5988C79.0705 20.7308 78.9984 21.199 78.9504 21.4871M123.773 26.9609L126.138 25.6405C126.534 25.4244 126.942 25.2203 127.339 25.0042C127.675 24.8242 128.203 24.5241 128.551 24.38C128.191 25.2083 127.819 25.8085 127.855 26.9129C127.891 28.0293 128.911 27.9692 129.079 26.4207C128.887 26.4807 128.695 27.249 128.311 26.8769C127.915 26.4927 128.407 25.0883 128.563 24.6201C128.683 24.236 128.551 24.368 129.355 23.9599C129.703 23.7798 132.884 22.2073 133.221 22.1233L133.329 21.4751C133.052 21.5471 131.144 22.4714 130.748 22.6635C128.683 23.6718 127.195 24.4761 125.202 25.5564C125.01 25.6645 124.806 25.7965 124.614 25.9045C124.073 26.1926 123.881 26.2166 123.773 26.9609ZM109.164 25.6044C108.996 25.9045 108.348 26.1566 108 26.3247C107.832 26.4087 106.8 26.8289 106.764 27.0209C107.28 27.117 108.048 26.9009 108.54 26.7808C109.116 26.6488 109.201 26.5047 109.645 25.8205C110.941 23.7678 109.032 24.5961 108.276 24.0439C108.264 23.7318 108.696 23.3837 108.936 23.2397C109.285 23.0356 109.176 23.3717 109.405 23.3837C109.585 23.3837 109.717 23.1436 109.777 22.9996C110.293 21.7632 109.405 21.283 108.048 23.2997C107.7 23.8159 107.112 25.0162 107.88 25.3884C108.3 25.5924 108.816 25.4724 109.152 25.6044M126.162 16.3254C126.09 16.1693 126.054 15.9052 126.006 15.7252C125.85 15.209 125.526 14.5248 124.89 14.5248C124.746 14.7888 124.302 15.185 124.902 15.5451C125.178 15.7011 125.154 15.5451 125.334 15.5091C125.538 15.6531 125.946 16.7455 126.018 17.1416C126.018 17.1416 126.006 17.1416 125.994 17.1536C125.994 17.1656 125.982 17.1656 125.97 17.1776C125.814 17.3097 125.766 17.3457 125.682 17.6098C125.622 17.7898 125.55 18.0779 125.622 18.222C125.67 18.162 125.862 17.9219 125.91 17.8979C125.994 17.8499 126.054 17.8379 126.15 17.8739C126.186 17.8859 126.21 17.8979 126.246 17.9219C126.33 17.9819 126.282 17.9459 126.33 18.0179C126.102 18.162 125.634 18.174 125.478 18.7622C125.37 19.1823 125.526 19.7465 125.61 20.1546C125.706 20.6108 125.79 21.0429 125.85 21.5111C125.886 21.7752 125.922 22.9156 125.97 23.0236C126.21 22.6755 126.114 21.4151 126.054 20.9349C125.97 20.2987 125.826 19.6385 125.622 19.0743C125.826 18.7862 126.438 18.6541 126.798 18.5581C127.014 18.4981 127.002 18.4861 127.098 18.282C127.267 17.8979 127.182 17.7538 126.93 17.5378C126.498 17.1656 126.33 17.1776 126.198 17.0816C126.45 16.2893 126.402 16.2653 126.57 15.5931C126.894 14.3687 127.17 15.0769 127.399 15.173C127.903 14.8489 127.207 13.6365 126.69 14.4767C126.282 15.149 126.306 16.0373 126.126 16.3013M110.029 14.9449C110.809 14.4287 110.677 15.329 110.605 15.4491C110.461 15.401 110.377 15.353 110.257 15.281C110.113 15.197 110.017 15.161 110.029 14.9329M110.341 16.2053C110.245 16.3254 110.077 16.4814 109.945 16.6014C109.381 17.1176 108.276 17.8259 107.592 18.27C107.352 18.4261 106.752 18.7622 106.656 18.9542C106.92 18.9182 107.568 18.6061 107.832 18.4981C108.24 18.318 108.588 18.15 108.924 17.9219C110.353 16.9496 110.257 16.6975 110.641 16.3374L110.965 16.5174C111.001 16.9736 110.413 18.0299 110.665 18.8942C110.929 19.7825 111.829 19.2063 111.805 18.0179C111.649 18.174 111.469 18.7982 111.097 18.5461C110.629 18.234 111.097 16.8655 111.241 16.4454C111.469 15.7972 111.157 15.8332 110.941 15.5931C111.637 12.5201 108.72 14.9809 109.861 15.9052C110.065 16.0733 110.209 16.0733 110.341 16.2173M55.3265 35.5798C55.4946 35.4117 55.9027 34.6675 55.9147 34.3194C55.7227 34.1633 54.8704 33.4911 54.5703 33.4791L54.1141 34.3794C53.9941 34.3194 53.9581 34.2593 53.802 34.1393C53.586 33.9832 53.0338 33.5751 52.8297 33.5511C52.7457 33.6471 52.2775 34.5834 52.2415 34.7515C52.3015 34.8235 53.4299 35.6278 53.586 35.6518C53.646 35.5318 53.9941 34.8235 54.0781 34.7395C54.4142 34.8955 55.1225 35.4957 55.3385 35.5558M100.005 32.2307C100.33 31.8585 100.762 32.2307 100.726 32.6508C100.498 32.6388 100.077 32.3627 100.005 32.2307ZM93.8474 35.8679C94.0995 35.9159 95.3119 35.5918 95.636 35.5077C96.4162 35.3157 96.6443 35.2917 97.3045 34.9196C98.2168 34.4034 99.0451 33.8272 99.4293 32.8309C99.4413 32.7948 99.4533 32.7588 99.4773 32.7228C99.5133 32.6388 99.4893 32.6748 99.5373 32.6388C99.6453 32.7588 100.486 33.5031 100.81 33.203C100.99 33.0349 101.218 32.2307 100.846 31.7145C100.27 30.9222 99.8374 31.9306 99.7654 31.9906C99.5733 32.1466 99.7654 31.7145 99.3332 32.4707C99.2132 32.6868 99.0931 32.9509 98.9491 33.1069C97.6767 34.4874 94.2915 35.5318 93.8474 35.8919M7.39457 35.5798C7.56262 35.4117 7.97076 34.6675 7.98276 34.3194C7.74268 34.1273 6.92641 33.4791 6.63832 33.4671C6.54228 33.6711 6.25419 34.1873 6.20617 34.3794C5.94208 34.2713 5.26986 33.5991 4.88573 33.5511C4.8017 33.6471 4.33355 34.5834 4.29754 34.7515C4.33355 34.7995 5.50994 35.6278 5.64198 35.6518C5.702 35.5198 6.05012 34.8235 6.13415 34.7395C6.47026 34.9075 7.1785 35.5077 7.39457 35.5558M27.9574 33.359C27.9214 33.4431 26.781 34.9916 27.7894 35.3397C28.1495 35.4597 28.7257 35.3517 29.0618 35.2437C29.3739 35.1356 29.8421 34.8475 29.9501 34.6315C29.566 34.6795 29.2058 34.8235 28.7497 34.8715C27.0091 35.0516 27.6933 34.1393 28.4256 33.4191C28.7857 33.0589 29.2899 32.9149 29.2058 32.2427C28.9538 32.3387 28.6537 32.9869 28.1135 32.7468C27.5973 32.5308 28.0655 32.1346 28.2095 32.1226C28.3776 32.1106 28.3896 32.2187 28.4616 32.3027C28.7737 32.0866 28.7857 31.6665 28.5816 31.5944C28.2575 31.4744 27.5253 32.3267 27.4653 32.7228C27.4052 33.0949 27.6573 33.287 27.9574 33.359ZM41.774 17.1656C41.822 16.9496 42.0621 16.8295 42.2902 16.8655C42.3982 17.0576 42.4342 17.2136 42.4342 17.4897C42.2182 17.5137 41.8701 17.2977 41.774 17.1536M42.2182 18.306L41.4619 19.1103C40.8497 19.7345 39.4573 20.7548 38.821 21.331C38.9051 21.379 38.749 21.403 38.9651 21.355L39.3732 21.139C39.9734 20.8028 40.4176 20.5868 40.9578 20.1426C41.4619 19.7225 42.3382 18.8702 42.4703 18.366C42.7464 18.378 42.8544 18.5581 43.0465 18.6301C43.0945 18.4261 43.2745 18.174 43.2385 17.9219C43.0825 17.7898 42.8904 17.7418 42.7343 17.5978C42.7704 17.2136 42.8664 16.6855 42.6503 16.3133C42.2062 15.5691 40.6577 17.3937 41.702 18.0179C41.9301 18.15 42.0861 18.15 42.2182 18.294M27.3812 14.7288C27.4653 14.3687 28.1375 14.1886 28.0174 15.0529C27.8614 15.137 27.4773 14.8849 27.3812 14.7288ZM27.7894 15.8812C27.6693 16.0253 27.5373 16.1333 27.4052 16.2773C27.2492 16.4454 27.1892 16.5174 27.0211 16.6735C26.733 16.9256 26.4449 17.1656 26.1328 17.4057C25.8567 17.6098 24.3922 18.6781 24.3202 18.8702C24.8004 18.7742 26.2048 17.9219 26.541 17.6578C26.9131 17.3697 27.7173 16.6014 27.9574 16.2053C28.0294 16.0853 28.0174 16.0733 28.1135 15.9652C28.3295 16.0733 28.4016 16.0853 28.5696 16.2533C28.5696 16.2533 28.5816 16.2173 28.5936 16.2293C28.6056 16.2533 28.8457 15.8092 28.8457 15.6411C28.8457 15.4371 28.5816 15.341 28.3536 15.245C28.3656 14.8609 28.5216 14.3687 28.3175 13.9486C27.9694 13.2643 26.8531 14.3447 26.9851 15.125C27.0211 15.365 27.1892 15.4731 27.3212 15.5691C27.3812 15.6171 27.4653 15.6771 27.5493 15.7131C27.5853 15.7372 27.6333 15.7492 27.6813 15.7732L27.8014 15.8692L27.7894 15.8812ZM40.5616 32.9269V32.9029V32.8309C40.5976 32.7108 40.6336 32.7348 40.6457 32.5308C40.4176 32.5788 40.2855 32.9269 40.0935 33.0829C39.7934 33.311 39.4933 33.0829 39.2052 33.0229C38.3769 32.8549 37.6206 33.6111 37.1285 34.1033C35.8921 35.3157 35.64 35.1716 35.3399 35.4117C35.2919 35.4597 35.3279 35.4117 35.2799 35.4717C36.4202 35.3757 36.8644 34.5834 37.6086 34.0553C38.689 33.299 39.1211 33.7672 39.5293 33.7792C39.9254 33.7792 40.2735 33.4311 40.3576 33.4431C40.4656 33.4551 40.6216 33.5991 40.8257 33.5991C41.3299 33.5991 41.5219 32.6388 41.3059 32.3507C40.9578 32.4947 41.0898 32.9389 41.0898 33.0109C40.9097 33.0109 40.7057 32.9989 40.5736 32.9269M71.4839 16.0373C71.3639 15.7732 71.1838 14.0566 70.0915 14.0566C69.9954 14.2367 69.6473 14.6448 69.7914 14.8609C70.3075 15.6651 70.4756 14.8369 70.7397 15.329L71.0518 16.0373C71.1958 16.4094 71.3279 17.0336 71.3759 17.0936C71.736 16.9015 71.82 15.8812 71.9281 15.413C72.3002 13.8285 72.6123 14.7168 72.9004 14.7888C73.2965 14.4767 72.9724 13.6004 72.4442 13.7325C71.9521 13.8525 71.724 15.0289 71.628 15.4971C71.592 15.6771 71.568 15.9292 71.4959 16.0373M81.0871 33.8992C80.9431 33.4551 80.727 31.9065 79.7187 31.9065C79.6227 32.0506 79.2745 32.4827 79.3946 32.6988C79.7547 33.311 80.1628 32.9749 80.1988 32.9869C80.3789 33.0349 80.751 34.0793 80.8231 34.3554C80.8711 34.5474 80.8951 34.8115 80.9431 34.9316C81.4473 34.8595 81.3872 32.6868 81.9394 32.3267C82.2995 32.3027 82.2275 32.5188 82.4436 32.6388C83.0318 32.4107 82.3235 30.9342 81.6993 31.8585C81.3752 32.3387 81.1952 33.7312 81.0631 33.8872M12.1722 36.9722C12.3762 36.9242 14.0688 35.9759 14.4409 35.7958L16.1815 34.9196C16.2895 34.8115 16.3255 34.3674 16.2895 34.1993C16.0495 34.2713 14.2729 35.1716 13.9848 35.3397C13.6126 35.5558 13.2165 35.7478 12.8324 35.9399C12.7123 35.9999 12.3522 36.192 12.3042 36.264C12.2202 36.384 12.1602 36.8042 12.1842 36.9602M65.0138 35.2557C65.2539 35.1836 65.9021 34.8115 66.1542 34.6675L69.0111 33.191C69.1191 33.0709 69.1552 32.6388 69.1311 32.4707L66.8264 33.6111C66.4422 33.8272 66.0581 34.0193 65.674 34.2113C65.554 34.2713 65.1938 34.4634 65.1458 34.5354C65.0618 34.6555 65.0018 35.0876 65.0258 35.2437M6.42224 17.5498C6.33822 17.6098 6.38623 17.5498 6.32621 17.6578C6.24218 17.8379 6.23018 18.4741 5.89407 18.7382C5.75002 18.8582 5.4019 18.9422 5.29387 18.7622C5.16182 18.5581 5.31788 18.21 5.28186 17.9579C4.7897 18.198 4.51361 20.1066 5.75002 19.4824C5.90607 19.4104 5.91808 19.3624 6.05012 19.2663C6.23018 19.1343 6.25419 19.2183 6.47026 19.2183C7.61064 19.2183 8.06679 17.5137 7.61064 17.0096C7.4906 17.0936 7.26252 17.4657 7.31054 17.6458C7.38256 17.8979 7.70667 18.246 6.95042 18.4621C6.9024 18.4741 6.79437 18.4981 6.74635 18.4981C6.56629 18.4981 6.6023 18.5221 6.55429 18.402C6.44625 18.126 6.66232 17.7418 6.43425 17.5498M42.6503 22.3154C42.5303 22.4114 42.4703 22.4834 42.2902 22.5674C41.4979 22.9155 41.8701 22.2073 41.702 21.7031C41.558 21.7392 41.594 21.6071 41.4859 22.1113C41.4499 22.2793 41.4139 22.4474 41.3419 22.5914C41.2338 22.8315 40.9217 23.1436 40.5736 22.9756C40.3456 22.7955 40.5256 22.4234 40.5016 22.1113C40.2855 22.1953 39.8774 22.9996 40.1655 23.5278C40.5136 24.164 41.2579 23.3237 41.4499 23.3357C41.81 23.3597 41.9781 23.3837 42.2542 23.1916C43.0344 22.6275 43.1665 21.4871 42.8064 21.163L42.7223 21.271C42.7223 21.271 42.6743 21.355 42.6503 21.391C42.6263 21.4391 42.5303 21.5951 42.5183 21.6431C42.4943 21.7512 42.6503 22.0273 42.6623 22.3033M119.368 18.8942C119.284 19.0022 118.696 19.4224 118.396 19.2783C118.095 19.1343 118.42 18.354 118.552 18.21C118.816 18.318 119.32 18.6541 119.368 18.8942ZM117.999 19.3144C117.999 19.7465 118.059 20.0106 118.564 20.0106C119.38 20.0106 119.62 19.2903 119.62 18.5701C119.62 18.0059 118.996 17.6098 118.852 17.4417C118.924 17.2257 119.14 16.7935 119.14 16.5894C118.828 16.5174 118.792 16.7935 118.672 17.0456C118.564 17.2857 118.48 17.4657 118.384 17.7298C118.252 18.0659 117.999 18.9542 117.999 19.3144ZM94.7357 21.4511C94.5916 21.7392 93.9674 21.9912 93.7634 21.8712C93.5113 21.7272 93.7754 20.9829 93.9194 20.8028C94.2315 20.9229 94.6036 21.187 94.7357 21.4511ZM93.3552 21.9192C93.3552 23.0476 94.4236 22.5554 94.6997 22.2433C94.9398 21.9552 94.9758 21.6071 94.9758 21.187C94.9758 20.7428 94.4476 20.2267 94.2075 20.1066C94.2315 19.9386 94.3035 19.7585 94.3636 19.6144C94.3996 19.5424 94.4356 19.4584 94.4596 19.3984C94.4956 19.2903 94.5436 19.2423 94.4356 19.1943C94.0635 19.0142 93.3552 21.379 93.3552 21.9432M130.015 32.1826C130.159 32.3027 131.252 33.0469 131.336 33.0709C131.492 32.8789 131.96 32.1346 131.9 31.7985C131.876 31.7385 130.856 30.9822 130.568 30.9582C130.484 31.1023 130.027 32.0266 130.015 32.1826ZM64.5216 22.6755C64.7497 22.8555 64.9538 22.9636 65.1698 23.1196C65.3379 23.2397 65.65 23.4917 65.806 23.5638C65.9621 23.4317 66.5743 22.4954 66.3582 22.2553C66.2982 22.1953 66.1662 22.1113 66.0701 22.0393C65.8901 21.8952 65.3259 21.4871 65.1098 21.4631C64.9898 21.5831 64.5336 22.4834 64.5216 22.6875M117.903 24.38L119.212 25.2923C119.392 25.1363 119.812 24.38 119.8 24.0199C119.572 23.8639 118.804 23.2517 118.504 23.1916C118.372 23.3237 117.939 24.176 117.891 24.392M19.0024 18.8342C18.7383 18.9782 18.7864 19.4224 18.3902 19.3744C17.634 19.2903 18.4863 17.0096 18.5703 16.6975C18.1141 17.1176 17.4779 19.2183 17.9101 19.8905C18.0061 20.0466 18.2822 20.1426 18.4863 19.9986C18.7744 19.8185 18.9184 19.2543 18.9904 18.8222" fill="#205B46"/>
<path d="M62.3849 40.3574C62.2408 39.8653 62.0247 39.3371 61.3285 39.3371C60.8363 39.3371 60.5843 39.6852 60.5843 40.1053C60.5843 40.5615 60.8844 40.8136 61.5326 41.1377C62.3729 41.5578 62.853 41.942 62.853 42.6742C62.853 43.5265 62.1328 44.1627 61.0884 44.1627C60.6203 44.1627 60.2001 44.0307 59.864 43.9226C59.816 43.7306 59.696 43.0463 59.6479 42.6742L59.924 42.6142C60.0801 43.0943 60.4642 43.8626 61.2205 43.8626C61.7126 43.8626 62.0127 43.5505 62.0127 43.0583C62.0127 42.5662 61.7246 42.3261 61.0764 41.978C60.2842 41.5458 59.792 41.1737 59.792 40.4174C59.792 39.6612 60.3922 39.037 61.4726 39.037C61.9647 39.037 62.3609 39.157 62.5289 39.181C62.5529 39.4571 62.6009 39.8172 62.661 40.2974L62.3969 40.3574H62.3849Z" fill="#205B46"/>
<path d="M65.4817 40.2975C65.2537 40.8737 65.0256 41.4499 64.8215 42.0141H66.0939L65.4697 40.2975H65.4817ZM66.178 44.0547V43.8027C66.6581 43.7426 66.6821 43.6586 66.5741 43.3465C66.4901 43.0944 66.358 42.7463 66.226 42.3742H64.7015C64.6054 42.6503 64.4974 42.9384 64.4134 43.2025C64.2573 43.6826 64.4134 43.7426 65.0136 43.8027V44.0547H63.189V43.8027C63.6691 43.7426 63.7892 43.6826 64.0412 43.0344L65.6138 39.1091L65.9379 39.0491C66.418 40.3575 66.9342 41.726 67.4264 43.0104C67.6905 43.6946 67.7625 43.7546 68.2667 43.8147V44.0667H66.19L66.178 44.0547Z" fill="#205B46"/>
<path d="M72.5764 44.0547V43.8026C73.1646 43.7426 73.2006 43.6946 73.2006 42.9623V39.9613C72.6244 41.2938 71.8922 42.9863 71.448 44.0547H71.22C70.8118 43.0104 70.1636 41.3658 69.6114 40.0334C69.5034 42.5062 69.5034 43.0104 69.5034 43.2384C69.5034 43.6586 69.6714 43.7426 70.2236 43.7906V44.0427H68.375V43.7906C68.8071 43.7546 68.9992 43.6586 69.0592 43.2264C69.0952 42.9623 69.1192 42.5902 69.2993 39.9973C69.3233 39.6252 69.2633 39.4452 68.6031 39.3851V39.1331H70.1276L71.6641 42.6382L73.2486 39.1331H74.7491V39.3851C74.1249 39.4452 74.0529 39.5172 74.0649 40.0934L74.1129 42.9503C74.1249 43.6706 74.1609 43.7066 74.7851 43.7906V44.0427H72.5884L72.5764 44.0547Z" fill="#205B46"/>
<path d="M77.3177 40.2975C77.0896 40.8737 76.8615 41.4499 76.6574 42.0141H77.9299L77.3057 40.2975H77.3177ZM78.0139 44.0547V43.8027C78.4941 43.7426 78.5181 43.6586 78.41 43.3465C78.326 43.0944 78.194 42.7463 78.0619 42.3742H76.5374C76.4414 42.6503 76.3333 42.9384 76.2493 43.2025C76.0933 43.6826 76.2493 43.7426 76.8495 43.8027V44.0547H75.0249V43.8027C75.5051 43.7426 75.6251 43.6826 75.8772 43.0344L77.4497 39.1091L77.7738 39.0491C78.254 40.3575 78.7701 41.726 79.2623 43.0104C79.5264 43.6946 79.5984 43.7546 80.1026 43.8147V44.0667H78.0259L78.0139 44.0547Z" fill="#205B46"/>
<path d="M57.6312 41.3177H0V41.8819H57.6312V41.3177Z" fill="#205B46"/>
<path d="M139.402 41.3177H81.771V41.8819H139.402V41.3177Z" fill="#205B46"/>
<path d="M175.906 62.4088C175.81 61.8806 175.63 61.3404 175.474 60.8363C175.234 60.032 174.814 58.7476 175.27 57.9553C175.33 57.8473 175.402 57.7512 175.498 57.6672L175.594 57.5832L175.702 57.6432C175.942 57.7752 176.122 58.3514 176.206 58.5915C176.387 59.1317 176.519 59.6959 176.651 60.2481C176.771 60.7522 176.879 61.2684 176.975 61.7726C177.035 62.0607 177.095 62.3488 177.131 62.6369C177.851 62.8049 178.559 62.937 179.291 63.069L179.135 61.9886L178.199 61.8086L177.467 58.9756C177.347 58.4595 177.203 57.9433 177.083 57.4271C176.951 56.8869 176.807 56.3348 176.723 55.7946L176.567 55.9626C176.375 56.1547 176.098 56.2507 175.846 56.3348C175.57 56.4188 175.306 56.4908 175.042 56.6109C174.322 56.935 174.022 57.4992 173.902 58.2674C173.746 59.2998 174.298 60.3801 174.454 61.3885V61.4965L174.382 61.5565C174.022 61.7966 173.65 61.9406 173.289 62.1447C172.677 62.4928 172.377 62.949 172.137 63.5612C172.197 63.5852 172.245 63.6092 172.305 63.6332C175.966 65.1217 179.868 65.8659 183.805 65.8659C184.525 65.8659 185.233 65.8419 185.942 65.7939L186.326 64.5935C185.486 64.6655 184.645 64.7016 183.805 64.7016C180.768 64.7016 177.755 64.2334 174.862 63.3211C174.754 63.2851 174.646 63.2491 174.538 63.2131L174.274 63.129L174.466 62.937C174.814 62.5768 175.414 62.4088 175.918 62.3848M158.645 28.1614C158.573 28.1014 158.489 28.0533 158.405 28.0293C158.284 27.9933 158.176 28.0053 158.056 28.0053H157.948L157.9 27.9093C157.624 27.3331 157.48 26.7569 156.94 26.3608C156.784 26.2407 156.604 26.1447 156.424 26.0727C156.1 25.9406 155.74 25.8686 155.404 25.9406C154.587 26.0967 154.263 26.901 154.155 27.6452L154.131 27.8253L153.951 27.7772C152.607 27.4531 152.703 26.0607 152.835 24.9443C152.078 25.7246 151.55 26.7209 152.126 27.7892C152.463 28.4015 153.087 28.9056 153.687 29.2537L153.795 29.3138L153.771 29.4338C153.399 31.3664 153.207 33.3231 153.207 35.2917C153.207 43.6585 156.592 51.5812 162.63 57.3671L162.714 57.4511C162.966 57.6912 163.23 57.9313 163.494 58.1714L163.626 58.2794C164.19 58.7836 164.779 59.2637 165.379 59.7199L168.788 54.4021C168.968 54.114 169.184 53.8259 169.52 53.7179C169.652 53.6819 169.784 53.6699 169.928 53.6699C169.82 53.2857 169.736 52.9016 169.652 52.5295C169.58 52.2294 169.508 51.9173 169.436 51.6172C169.412 51.5092 169.388 51.4011 169.352 51.3051C167.96 53.4778 166.555 55.6385 165.151 57.8113L165.043 57.9793L164.887 57.8473C164.407 57.4391 163.95 57.031 163.494 56.5989C162.942 56.0827 162.414 55.5425 161.91 54.9783L161.79 54.8463L164.286 52.8056C163.962 52.6375 163.626 52.4215 163.338 52.2294C163.194 52.1334 163.038 52.0253 162.894 51.9173C162.894 51.9653 162.894 52.0013 162.894 52.0493C162.894 52.1574 162.918 52.2774 162.882 52.3854C162.834 52.5175 162.714 52.6135 162.606 52.6976C162.402 52.8536 162.198 53.0097 162.006 53.1657C161.718 53.3938 161.442 53.6219 161.153 53.8499L161.021 53.958L160.913 53.8259C160.253 53.0097 159.629 52.1574 159.065 51.2811L158.969 51.137L161.814 49.4205C161.382 49.0964 160.961 48.7362 160.589 48.3521C160.481 48.7242 160.169 49.0003 159.821 49.2164L158.345 50.1167L158.26 49.9606C157.78 49.1324 157.348 48.2681 156.952 47.3918L156.88 47.2357L159.941 45.9153C159.941 45.9153 159.821 45.8073 159.761 45.7472C159.569 45.5672 159.389 45.3871 159.209 45.1951C159.077 45.039 158.957 44.8709 158.837 44.7029C158.837 44.7269 158.837 44.7389 158.825 44.7629C158.729 45.027 158.501 45.195 158.26 45.3271C158.056 45.4471 157.828 45.5552 157.612 45.6632C157.276 45.8193 156.928 45.9753 156.58 46.1194L156.412 46.1914L156.352 46.0233C155.5 43.8386 154.911 41.5458 154.599 39.2171L154.563 38.965L154.815 39.025C155.68 39.2531 156.532 39.7212 157.312 40.1414C157.432 40.2014 157.552 40.2734 157.672 40.3334L157.552 38.7729L155.392 38.1367L155.68 37.9326C155.944 37.7406 156.268 37.5965 156.568 37.4525C156.844 37.3324 157.132 37.2124 157.408 37.0924L157.288 35.5198C156.952 35.7719 156.628 36.024 156.304 36.2761C155.836 36.6122 155.175 37.0803 154.623 37.2364L154.419 37.2964L154.371 36.6722C154.347 36.2281 154.347 35.7839 154.347 35.3398C154.347 33.4912 154.515 31.6545 154.863 29.8419L154.899 29.6739L155.067 29.6979C156.172 29.8779 157.072 29.4098 157.864 28.6775C158.092 28.4735 158.356 28.3174 158.633 28.1854M156.796 27.9333C156.712 28.3654 156.28 28.6535 155.848 28.5575C155.416 28.4735 155.127 28.0413 155.223 27.6092C155.307 27.177 155.74 26.889 156.172 26.985C156.604 27.069 156.892 27.5012 156.796 27.9333ZM163.386 18.7262C163.038 18.102 162.75 17.4538 162.57 16.7576C161.862 17.6099 161.189 18.4861 160.565 19.3985C160.025 20.1907 159.521 20.995 159.077 21.8473C158.909 22.1714 158.741 22.4955 158.585 22.8196C158.332 23.3238 157.66 23.1317 157.288 22.8796L157.156 22.7956L157.216 22.6635C158.405 20.1787 159.869 17.91 161.67 15.8213C161.394 15.5452 161.117 15.2811 160.841 15.005C159.365 16.7576 158.056 18.5822 156.964 20.5989C156.508 21.4511 156.088 22.3154 155.716 23.2037C156.292 23.5518 156.952 23.924 157.576 24.116C157.96 24.2361 158.405 24.3081 158.789 24.116C159.161 23.936 159.401 23.5518 159.569 23.1917C159.689 22.9276 159.821 22.6755 159.953 22.4115C160.301 21.7272 160.697 21.055 161.117 20.3948C161.43 19.9026 161.778 19.3985 162.15 18.9543C162.258 18.8343 162.378 18.7382 162.534 18.7022C162.714 18.6542 162.894 18.6782 163.074 18.7022C163.194 18.7022 163.302 18.7262 163.41 18.7142M172.473 56.0467L171.849 53.5018C171.093 54.6422 170.336 55.7826 169.628 56.947C169.316 57.4631 169.004 57.9913 168.692 58.5075C168.2 59.3238 167.696 60.14 167.191 60.9563L168.26 61.6165L171.189 56.911C171.369 56.6349 171.573 56.3228 171.885 56.1907C171.993 56.1427 172.101 56.1187 172.221 56.0947C172.305 56.0707 172.389 56.0587 172.473 56.0347M190.287 12.5922C190.695 13.3724 191.055 14.1887 191.488 14.957C191.956 13.6245 192.412 12.2801 192.82 10.9236C192.976 10.3955 193.132 9.86728 193.3 9.3391C193.588 8.40279 193.888 7.46648 194.188 6.54217L192.988 6.14604L191.307 11.4398C191.211 11.7399 191.091 12.064 190.839 12.2681C190.743 12.3401 190.635 12.4001 190.527 12.4601C190.443 12.5082 190.359 12.5562 190.275 12.5922M214.283 37.0683C212.903 37.0443 211.522 36.9723 210.142 36.9123C209.638 36.8883 209.145 36.8883 208.653 36.8883C208.425 36.8883 208.161 36.8883 207.945 36.7923C207.801 36.7322 207.681 36.6362 207.561 36.5282C207.417 36.4081 207.285 36.2761 207.141 36.156C207.009 36.2761 206.865 36.3961 206.733 36.5162C206.192 36.9963 205.676 37.4765 205.16 37.9686L214.235 38.2807L214.283 37.0683ZM213.995 39.9253L209.578 39.7572C209.025 39.7332 208.473 39.7572 207.921 39.7332C207.585 39.7332 207.213 39.6972 206.913 39.5292C206.697 39.4091 206.553 39.2291 206.421 39.037C205.856 39.5892 205.268 40.1294 204.692 40.6695C207.273 40.5615 209.866 40.8616 212.423 41.0537H212.627L212.579 41.2577C212.362 42.2781 212.11 43.2984 211.786 44.2948L211.75 44.4148H211.618C210.898 44.4028 210.226 44.7509 209.83 45.3631C209.277 46.2154 209.41 47.3438 210.154 48.028L210.25 48.112L210.19 48.2321C209.77 49.0844 209.301 49.9126 208.809 50.7409L208.725 50.8849L206.649 49.8286C206.709 50.1407 206.757 50.4768 206.769 50.7529C206.769 50.957 206.769 51.173 206.769 51.3771C206.769 51.5332 206.769 51.7012 206.769 51.8573C207.273 51.7372 207.789 51.8573 208.245 52.1094C208.545 52.2774 208.845 52.4455 209.145 52.6135C209.361 52.7336 209.578 52.8536 209.794 52.9977C210.07 53.1777 210.37 53.3818 210.502 53.6939C210.646 54.042 210.562 54.5222 210.478 54.9183C210.694 54.8583 210.91 54.6782 211.042 54.5222C211.342 54.162 211.462 53.7059 211.414 53.2497C211.366 52.7696 211.126 52.4095 210.778 52.0974C210.622 51.9533 210.466 51.8333 210.298 51.7132C210.166 51.6172 210.01 51.4972 209.914 51.3771L209.842 51.2811L210.31 50.4768C210.646 49.8886 210.958 49.2884 211.258 48.6882L211.306 48.5802H211.426C212.17 48.6402 212.903 48.2801 213.311 47.6439C213.887 46.7676 213.719 45.5912 212.915 44.907L212.819 44.8349L212.855 44.7269C213.035 44.1747 213.203 43.6105 213.347 43.0463C213.503 42.4461 213.635 41.8339 213.743 41.2217C213.827 40.7896 213.899 40.3574 213.959 39.9133M210.754 45.9633C211.054 45.4952 211.69 45.3631 212.146 45.6752C212.615 45.9753 212.747 46.5995 212.435 47.0677C212.134 47.5358 211.51 47.6679 211.042 47.3558C210.574 47.0557 210.442 46.4315 210.754 45.9633ZM207.777 29.3738C208.365 29.8299 208.941 30.2981 209.506 30.7662C210.01 31.1864 210.514 31.6065 210.994 32.0507C211.258 32.2908 211.534 32.5308 211.786 32.7829C211.714 32.2067 211.666 31.6185 211.582 31.0423C210.922 26.6609 209.229 22.5075 206.637 18.9063C206.24 18.3541 206.397 17.8019 206.877 17.3818L207.021 17.2497L207.861 18.4021C210.682 22.4115 212.447 27.045 212.999 31.9186C213.095 32.8069 213.131 33.6712 212.591 34.3674L214.331 34.2714C214.295 33.4671 214.271 32.6749 214.175 31.8706C213.647 27.153 212.038 22.6275 209.446 18.6542C209.121 18.15 208.785 17.6579 208.425 17.1777C207.813 16.3494 207.153 15.5812 206.481 14.8129C206.156 14.4528 205.832 14.0927 205.496 13.7566C204.536 12.7842 203.516 11.8839 202.435 11.0557C201.715 10.5035 200.971 9.98732 200.202 9.49515C199.506 9.05101 198.81 8.64287 198.078 8.25874C197.321 7.86261 196.553 7.50249 195.773 7.16638L194.272 12.2681C194.152 12.6882 194.044 13.1084 193.936 13.5285C193.888 13.7326 193.828 13.9847 193.66 14.1287C193.516 14.2607 193.252 14.3328 193.012 14.3928C193.408 15.101 193.804 15.8213 194.2 16.5295C194.945 14.0087 195.689 11.4878 196.421 8.96698L196.481 8.76291L196.673 8.85894C197.165 9.11103 197.658 9.37511 198.138 9.6392C198.558 9.87928 198.966 10.1194 199.386 10.3594L199.542 10.4555L197.49 13.3965C198.186 13.4205 198.582 13.5165 199.206 13.8286C199.194 13.7326 199.182 13.6485 199.17 13.5525C199.158 13.4085 199.146 13.2764 199.17 13.1324C199.218 12.8923 199.374 12.6762 199.506 12.4841C199.806 12.064 200.106 11.6679 200.395 11.2477L200.491 11.1037L200.635 11.1997C201.595 11.8839 202.507 12.6402 203.408 13.4085L203.54 13.5285L201.079 16.3254C201.319 16.3494 201.571 16.3975 201.811 16.4695C202.147 16.5655 202.471 16.7216 202.795 16.8776C202.795 16.7936 202.783 16.7216 202.771 16.6375C202.771 16.5175 202.759 16.3975 202.783 16.2774C202.843 16.0613 203.035 15.8693 203.179 15.7012C203.552 15.3051 203.924 14.909 204.284 14.5008L204.404 14.3688L204.536 14.4888C205.172 15.053 205.736 15.7492 206.288 16.3975L206.421 16.5415L206.252 16.6495C205.172 17.3578 204.992 18.4501 205.748 19.4945C208.029 22.6635 209.602 26.2888 210.346 30.13L210.49 30.8983L210.142 30.6582C209.422 30.154 208.593 29.7219 207.753 29.3738M187.694 59.1797C187.298 59.1797 186.986 59.5158 186.998 59.912C186.998 60.3081 187.334 60.6202 187.73 60.6082C188.126 60.6082 188.439 60.2721 188.439 59.8759C188.439 59.4798 188.102 59.1677 187.706 59.1677M191.86 62.2407C192.412 62.0607 192.976 61.8926 193.528 61.6885C197.694 60.164 201.427 57.6792 204.44 54.4261C204.908 53.922 205.472 53.982 205.976 54.3541L206.132 54.4741L205.172 55.5305C202.003 58.8796 198.09 61.4365 193.732 62.985C192.484 63.4291 191.175 63.7892 189.879 64.0893L189.711 64.1254L189.147 61.9166C188.811 62.4568 188.246 62.961 187.754 63.3211C188.391 63.8133 188.739 64.9536 188.859 65.6619C188.931 66.058 189.003 66.5382 188.955 66.9343C188.931 67.1864 188.847 67.4145 188.655 67.5945C188.571 67.6785 188.475 67.7266 188.367 67.7866C188.895 67.7986 189.471 67.7386 189.807 67.4145C190.275 66.9463 190.119 66.01 189.987 65.4338L189.951 65.2657L190.119 65.2297C191.392 64.9176 192.664 64.5935 193.9 64.1734C198.15 62.6969 202.015 60.2961 205.232 57.139C205.664 56.7189 206.072 56.2868 206.481 55.8426C206.865 55.4105 207.237 54.9783 207.585 54.5342L206.589 53.5738C205.664 52.6375 204.548 52.7936 203.684 53.7179C201.031 56.5868 197.79 58.8436 194.176 60.3321L193.456 60.6322L193.624 60.2361C193.972 59.4318 194.236 58.5315 194.405 57.6312C194.068 58.2914 193.732 58.9516 193.384 59.5999C193.072 60.176 192.76 60.7522 192.424 61.3164C192.244 61.6285 192.064 61.9406 191.86 62.2407ZM172.365 9.50716C172.773 9.84327 173.277 10.1314 173.722 10.4075C174.442 10.8516 175.582 11.5478 175.762 12.4481C175.786 12.5682 175.798 12.6882 175.786 12.8083V12.9403L175.654 12.9643C175.39 13.0243 174.874 12.7002 174.658 12.5682C174.166 12.2801 173.698 11.944 173.229 11.6079C172.809 11.3078 172.389 10.9957 171.981 10.6715C171.753 10.4915 171.513 10.3114 171.297 10.1194C170.649 10.4675 170.012 10.8276 169.388 11.1997L170.216 11.92L171.045 11.4398L173.458 13.0964C173.89 13.4085 174.334 13.7086 174.766 14.0087C175.222 14.3208 175.69 14.6569 176.11 15.005V14.7769C176.134 14.5128 176.278 14.2607 176.411 14.0327C176.555 13.7926 176.723 13.5525 176.843 13.3004C177.179 12.5802 177.023 11.956 176.615 11.3078C176.062 10.4195 174.934 9.96331 174.154 9.30309L174.07 9.23107L174.094 9.12303C174.214 8.71489 174.394 8.35477 174.526 7.95864C174.754 7.29842 174.694 6.75824 174.466 6.13403C174.406 6.14604 174.346 6.17005 174.298 6.18205C170.565 7.45447 167.119 9.43513 164.142 12.028C163.602 12.4962 163.086 12.9763 162.57 13.4805L163.062 14.6449C163.65 14.0447 164.262 13.4565 164.899 12.9043C167.191 10.9116 169.772 9.29109 172.569 8.09069C172.677 8.04267 172.785 7.99465 172.881 7.95864L173.133 7.85061V8.1267C173.097 8.63087 172.761 9.14704 172.377 9.49515M201.895 7.76658C201.499 7.76658 201.187 8.10269 201.187 8.49882C201.187 8.89495 201.523 9.20706 201.919 9.19505C202.315 9.19505 202.627 8.85894 202.615 8.46281C202.615 8.06668 202.279 7.75457 201.883 7.76658M200.659 17.6579C200.262 17.6579 199.95 17.994 199.962 18.3901C199.962 18.7862 200.298 19.0984 200.695 19.0863C201.091 19.0863 201.403 18.7502 201.391 18.3541C201.391 17.958 201.055 17.6459 200.659 17.6459" fill="#205B46"/>
<path d="M183.769 71.0997C164.383 71.0997 148.669 55.3865 148.669 36C148.669 18.114 162.054 3.34912 179.364 1.17639C179.556 2.7129 180.54 4.00934 181.896 4.64555C180.372 5.35378 179.328 6.8903 179.328 8.67889C179.328 10.4675 180.384 12.004 181.896 12.7122C180.372 13.4205 179.328 14.957 179.328 16.7456C179.328 16.7576 179.328 16.7816 179.328 16.7936C170.577 18.8103 164.046 26.6489 164.046 36.012C164.046 46.8996 172.869 55.7346 183.769 55.7346C194.669 55.7346 203.492 46.8996 203.492 36.012C203.492 26.6489 196.961 18.8103 188.211 16.7936C188.211 16.7816 188.211 16.7576 188.211 16.7456C188.211 14.957 187.154 13.4205 185.642 12.7122C187.166 12.004 188.211 10.4675 188.211 8.67889C188.211 6.8903 187.154 5.35378 185.642 4.64555C186.998 4.00934 187.982 2.72491 188.175 1.17639C205.484 3.33711 218.869 18.102 218.869 36C218.869 55.3865 203.156 71.0997 183.769 71.0997ZM180.24 8.66689C180.24 6.72224 181.824 5.13771 183.769 5.13771C185.714 5.13771 187.298 6.72224 187.298 8.66689C187.298 10.6115 185.714 12.1961 183.769 12.1961C181.824 12.1961 180.24 10.6115 180.24 8.66689ZM191.091 18.6662C193.336 19.6145 195.341 20.971 197.069 22.6996C198.798 24.4281 200.155 26.4448 201.103 28.6776C202.087 30.9943 202.579 33.4552 202.579 36C202.579 38.5448 202.075 41.0057 201.103 43.3224C200.155 45.5672 198.798 47.5719 197.069 49.3004C195.341 51.029 193.324 52.3855 191.091 53.3338C188.775 54.3181 186.302 54.8103 183.769 54.8103C181.236 54.8103 178.763 54.3181 176.447 53.3338C174.202 52.3855 172.197 51.029 170.469 49.3004C168.74 47.5719 167.384 45.5552 166.435 43.3224C165.451 41.0057 164.959 38.5328 164.959 36C164.959 33.4672 165.451 30.9943 166.435 28.6776C167.384 26.4328 168.74 24.4281 170.469 22.6996C172.197 20.971 174.214 19.6145 176.447 18.6662C178.763 17.6819 181.224 17.1897 183.769 17.1897C186.314 17.1897 188.775 17.6819 191.091 18.6662ZM183.769 16.2774C182.569 16.2774 181.392 16.3855 180.24 16.5895C180.312 14.7049 181.86 13.1924 183.769 13.1924C185.678 13.1924 187.226 14.7049 187.298 16.5895C186.158 16.3855 184.981 16.2774 183.769 16.2774ZM183.769 0.9003C184.945 0.9003 186.122 0.96032 187.262 1.06836C187.034 2.79693 185.558 4.12938 183.769 4.12938C181.98 4.12938 180.504 2.79693 180.276 1.06836C181.428 0.948316 182.593 0.9003 183.769 0.9003ZM216.936 21.9913C215.124 17.7059 212.531 13.8526 209.218 10.5515C205.904 7.25042 202.063 4.64555 197.778 2.83294C193.336 0.96032 188.631 0 183.769 0C178.907 0 174.19 0.948316 169.76 2.83294C165.475 4.64555 161.622 7.23841 158.321 10.5515C155.019 13.8646 152.415 17.7059 150.602 21.9913C148.729 26.4328 147.769 31.1384 147.769 36C147.769 40.8616 148.717 45.5792 150.602 50.0087C152.415 54.2941 155.007 58.1474 158.321 61.4485C161.634 64.7496 165.475 67.3544 169.76 69.1671C174.202 71.0397 178.907 72 183.769 72C188.631 72 193.348 71.0517 197.778 69.1671C202.063 67.3544 205.916 64.7616 209.218 61.4485C212.519 58.1354 215.124 54.2941 216.936 50.0087C218.809 45.5672 219.769 40.8616 219.769 36C219.769 31.1384 218.821 26.4208 216.936 21.9913Z" fill="#205B46"/>
<path d="M190.167 48.4481C190.756 48.4121 191.392 48.4481 191.992 48.4241C191.728 49.4805 190.888 49.6125 189.687 49.6125C189.783 49.8166 189.903 49.8406 190.119 49.9486C192.472 51.137 194.381 48.3881 193.325 46.3474C192.472 44.6429 190.828 45.039 190.275 46.6355C190.035 47.3437 190.011 48.148 190.155 48.4601M192.184 47.1037C192.184 47.1037 192.064 47.5118 191.596 47.3077C191.344 47.1997 191.32 46.8996 191.416 46.6835C191.632 46.2394 192.412 46.5515 192.184 47.0917M175.15 44.1507C175.427 44.3788 175.715 44.4628 175.715 45.003V45.3751C173.83 45.5071 173.914 47.1277 173.914 48.4001H176.915L176.903 42.9983C176.555 43.4304 175.691 43.9346 175.162 44.1627M175.15 47.1877C175.186 46.8156 175.355 46.6355 175.715 46.5875V47.1997H175.15V47.1877ZM186.314 44.6909L189.399 48.4001C189.747 48.8202 188.619 49.0003 188.247 48.6522L187.983 48.4121H177.887V47.1997H183.121C183.073 46.5515 182.617 46.5995 181.993 46.5995C180.564 46.5995 179.052 46.6595 177.827 46.5995C177.899 46.4194 178.199 46.2154 178.452 45.8192C178.56 45.6512 178.92 44.955 178.992 44.8829C179.544 45.3751 178.908 45.4351 180.516 45.4351H181.813C182.497 45.4351 183.145 45.4111 183.625 45.7712C184.033 46.0713 184.322 46.5275 184.322 47.1997H186.998C186.218 46.2514 185.426 45.3031 184.634 44.3548C184.634 44.3548 184.634 44.3548 184.622 44.3427C184.982 44.0547 185.534 43.7426 186.338 44.7029M190.095 38.977C190.648 38.4608 190.66 38.4848 190.648 37.9446V36.096C190.648 34.8956 190.432 34.6675 191.2 34.2474L191.044 34.1153C189.963 33.3951 190.047 32.963 189.423 32.4108C189.399 34.2954 189.423 35.3998 189.423 37.2844C189.423 37.5005 189.423 37.6685 189.423 37.7886C189.423 37.9806 189.123 38.1847 188.979 38.3648C188.715 38.0767 188.523 37.8606 188.523 37.8006C188.523 37.5605 188.523 37.4525 188.523 36.9243C188.523 34.0673 188.523 34.6315 188.523 32.4828C187.899 33.047 187.707 33.7912 186.77 34.1514C186.83 34.2234 186.782 34.1754 186.854 34.2474C187.467 34.8596 187.311 33.8633 187.311 35.4238V38.0887C187.311 38.4488 187.671 38.8809 187.959 39.049L187.671 39.3371C187.515 39.4931 187.335 39.5532 187.335 39.8653V41.9179H190.66V40.3214C190.66 39.4211 190.564 39.4451 190.107 38.965M189.111 39.6612C189.279 39.8653 189.531 40.1534 189.543 40.2494V40.7295H188.643V40.2494C188.643 40.1534 188.943 39.8292 189.111 39.6612ZM175.138 40.7295C175.162 40.3934 175.367 40.1053 175.715 40.1534V40.7175L175.535 40.7295H175.331H175.138ZM179.304 35.1477C179.304 34.4875 179.592 34.5355 179.856 34.1874C179.664 33.9953 179.352 33.9233 178.884 33.4071C178.74 33.2511 178.608 33.095 178.488 32.9389C178.368 32.7829 178.235 32.5308 178.115 32.4588V40.7295H176.903V36.4321C176.759 36.5041 176.771 36.5041 176.651 36.6242C176.039 37.2484 175.379 37.3924 175.114 37.6205C175.535 37.8246 175.703 37.9446 175.703 38.5328C175.703 39.013 175.703 38.4128 175.703 38.8929C175.03 39.037 174.706 39.121 174.37 39.5411C173.818 40.2254 173.902 41.0657 173.902 41.9419H182.305V35.1597C182.305 34.7516 182.389 34.6195 182.665 34.3674C182.713 34.3194 182.725 34.3194 182.773 34.2714C182.833 34.2234 182.821 34.2354 182.857 34.1874C182.485 33.8873 182.341 33.9113 181.885 33.4191C181.741 33.2631 181.621 33.119 181.489 32.951C181.369 32.7709 181.261 32.5668 181.116 32.4588V40.7415H179.28V35.1597L179.304 35.1477ZM184.898 41.9299C184.982 41.4978 184.922 37.2364 184.922 36.048C184.922 35.1837 184.742 34.8836 185.342 34.4515L185.546 34.2834C185.174 34.1393 184.682 33.7312 184.466 33.4911L183.673 32.4948V41.9419H184.886L184.898 41.9299ZM193.012 35.3518C193.012 34.7876 193.288 34.5355 193.637 34.2954C193.433 34.1754 193.24 34.0433 193.06 33.9113C192.868 33.7672 192.748 33.6232 192.592 33.4671C192.244 33.131 191.896 32.5668 191.8 32.4588V41.9179H193.024V35.3397L193.012 35.3518ZM175.138 30.01C175.162 29.6138 175.331 29.4338 175.715 29.3978V30.01H175.138ZM184.754 31.1984C184.838 30.7302 184.766 26.5408 184.766 25.3164C184.766 24.7882 184.682 24.176 184.91 23.8399C185.042 23.6358 185.198 23.6358 185.33 23.4558C184.958 23.0957 184.862 23.3237 183.985 22.2314C183.901 22.1233 183.877 22.0993 183.817 21.9913L183.601 21.7512V29.998H176.915V25.7245C176.555 26.0607 175.799 26.6849 175.138 26.8649C175.138 26.8649 175.162 26.8889 175.174 26.8889L175.559 27.189C175.835 27.5011 175.751 27.6572 175.727 28.1734C174.586 28.2574 173.926 29.0857 173.926 30.2621C173.926 31.3664 173.83 31.2104 174.406 31.1984C175.679 31.1864 183.757 31.2584 184.778 31.1984M186.146 31.1984H187.359C187.479 30.5622 187.287 26.3488 187.383 24.5722C187.395 24.2481 187.527 23.9239 187.767 23.7439L188.007 23.5518C187.635 23.4078 187.178 23.0116 186.95 22.7836C186.638 22.4475 186.242 21.8473 186.146 21.7632V31.1984ZM192.52 28.4374C193.072 27.9213 193.084 27.9453 193.072 27.4171V25.5685C193.072 24.3681 192.856 24.14 193.625 23.7199L193.469 23.5878C192.388 22.8676 192.472 22.4354 191.848 21.8953C191.824 23.7799 191.848 24.8843 191.848 26.7689C191.848 26.985 191.848 27.153 191.848 27.2731C191.848 27.4651 191.548 27.6692 191.404 27.8493C191.14 27.5612 190.948 27.3451 190.948 27.2851C190.948 27.045 190.948 26.9369 190.948 26.4088C190.948 23.5518 190.948 24.116 190.948 21.9673C190.324 22.5315 190.131 23.2757 189.207 23.6358C189.267 23.7079 189.219 23.6599 189.291 23.7319C189.903 24.3441 189.747 23.3478 189.747 24.9083V27.5732C189.747 27.9333 190.095 28.3654 190.396 28.5335L190.107 28.8216C189.951 28.9776 189.771 29.0376 189.771 29.3498V31.4024H193.096V29.8059C193.096 28.9056 193 28.9296 192.544 28.4495M191.416 29.1097C191.584 29.3137 191.836 29.6018 191.848 29.6979V30.178H190.948V29.6979C190.948 29.6018 191.248 29.2777 191.416 29.1097Z" fill="#205B46"/>
</g>
<defs>
<clipPath id="clip0_4001_23">
<rect width="219.769" height="72" fill="white"/>
</clipPath>
</defs>
</svg>
